<svg width="547" height="124" viewBox="0 0 547 124" fill="none" xmlns="http://www.w3.org/2000/svg">
<path d="M130.068 101V31.1818H157.614C162.909 31.1818 167.42 32.1932 171.148 34.2159C174.875 36.2159 177.716 39 179.67 42.5682C181.648 46.1136 182.636 50.2045 182.636 54.8409C182.636 59.4773 181.636 63.5682 179.636 67.1136C177.636 70.6591 174.739 73.4205 170.943 75.3977C167.17 77.375 162.602 78.3636 157.239 78.3636H139.682V66.5341H154.852C157.693 66.5341 160.034 66.0455 161.875 65.0682C163.739 64.0682 165.125 62.6932 166.034 60.9432C166.966 59.1705 167.432 57.1364 167.432 54.8409C167.432 52.5227 166.966 50.5 166.034 48.7727C165.125 47.0227 163.739 45.6705 161.875 44.7159C160.011 43.7386 157.648 43.25 154.784 43.25H144.83V101H130.068ZM191.952 101V48.6364H206.031V57.7727H206.577C207.531 54.5227 209.134 52.0682 211.384 50.4091C213.634 48.7273 216.224 47.8864 219.156 47.8864C219.884 47.8864 220.668 47.9318 221.509 48.0227C222.349 48.1136 223.088 48.2386 223.724 48.3977V61.2841C223.043 61.0795 222.099 60.8977 220.895 60.7386C219.69 60.5795 218.588 60.5 217.588 60.5C215.452 60.5 213.543 60.9659 211.861 61.8977C210.202 62.8068 208.884 64.0795 207.906 65.7159C206.952 67.3523 206.474 69.2386 206.474 71.375V101H191.952ZM252.659 102.023C247.273 102.023 242.636 100.932 238.75 98.75C234.886 96.5455 231.909 93.4318 229.818 89.4091C227.727 85.3636 226.682 80.5795 226.682 75.0568C226.682 69.6705 227.727 64.9432 229.818 60.875C231.909 56.8068 234.852 53.6364 238.648 51.3636C242.466 49.0909 246.943 47.9545 252.08 47.9545C255.534 47.9545 258.75 48.5114 261.727 49.625C264.727 50.7159 267.341 52.3636 269.568 54.5682C271.818 56.7727 273.568 59.5455 274.818 62.8864C276.068 66.2045 276.693 70.0909 276.693 74.5455V78.5341H232.477V69.5341H263.023C263.023 67.4432 262.568 65.5909 261.659 63.9773C260.75 62.3636 259.489 61.1023 257.875 60.1932C256.284 59.2614 254.432 58.7955 252.318 58.7955C250.114 58.7955 248.159 59.3068 246.455 60.3295C244.773 61.3295 243.455 62.6818 242.5 64.3864C241.545 66.0682 241.057 67.9432 241.034 70.0114V78.5682C241.034 81.1591 241.511 83.3977 242.466 85.2841C243.443 87.1705 244.818 88.625 246.591 89.6477C248.364 90.6705 250.466 91.1818 252.898 91.1818C254.511 91.1818 255.989 90.9545 257.33 90.5C258.67 90.0455 259.818 89.3636 260.773 88.4545C261.727 87.5455 262.455 86.4318 262.955 85.1136L276.386 86C275.705 89.2273 274.307 92.0455 272.193 94.4545C270.102 96.8409 267.398 98.7045 264.08 100.045C260.784 101.364 256.977 102.023 252.659 102.023ZM286.17 120.636V48.6364H300.489V57.4318H301.136C301.773 56.0227 302.693 54.5909 303.898 53.1364C305.125 51.6591 306.716 50.4318 308.67 49.4545C310.648 48.4545 313.102 47.9545 316.034 47.9545C319.852 47.9545 323.375 48.9545 326.602 50.9545C329.83 52.9318 332.409 55.9205 334.341 59.9205C336.273 63.8977 337.239 68.8864 337.239 74.8864C337.239 80.7273 336.295 85.6591 334.409 89.6818C332.545 93.6818 330 96.7159 326.773 98.7841C323.568 100.83 319.977 101.852 316 101.852C313.182 101.852 310.784 101.386 308.807 100.455C306.852 99.5227 305.25 98.3523 304 96.9432C302.75 95.5114 301.795 94.0682 301.136 92.6136H300.693V120.636H286.17ZM300.386 74.8182C300.386 77.9318 300.818 80.6477 301.682 82.9659C302.545 85.2841 303.795 87.0909 305.432 88.3864C307.068 89.6591 309.057 90.2955 311.398 90.2955C313.761 90.2955 315.761 89.6477 317.398 88.3523C319.034 87.0341 320.273 85.2159 321.114 82.8977C321.977 80.5568 322.409 77.8636 322.409 74.8182C322.409 71.7955 321.989 69.1364 321.148 66.8409C320.307 64.5455 319.068 62.75 317.432 61.4545C315.795 60.1591 313.784 59.5114 311.398 59.5114C309.034 59.5114 307.034 60.1364 305.398 61.3864C303.784 62.6364 302.545 64.4091 301.682 66.7045C300.818 69 300.386 71.7045 300.386 74.8182ZM361.852 101.989C358.511 101.989 355.534 101.409 352.92 100.25C350.307 99.0682 348.239 97.3295 346.716 95.0341C345.216 92.7159 344.466 89.8295 344.466 86.375C344.466 83.4659 345 81.0227 346.068 79.0455C347.136 77.0682 348.591 75.4773 350.432 74.2727C352.273 73.0682 354.364 72.1591 356.705 71.5455C359.068 70.9318 361.545 70.5 364.136 70.25C367.182 69.9318 369.636 69.6364 371.5 69.3636C373.364 69.0682 374.716 68.6364 375.557 68.0682C376.398 67.5 376.818 66.6591 376.818 65.5455V65.3409C376.818 63.1818 376.136 61.5114 374.773 60.3295C373.432 59.1477 371.523 58.5568 369.045 58.5568C366.432 58.5568 364.352 59.1364 362.807 60.2955C361.261 61.4318 360.239 62.8636 359.739 64.5909L346.307 63.5C346.989 60.3182 348.33 57.5682 350.33 55.25C352.33 52.9091 354.909 51.1136 358.068 49.8636C361.25 48.5909 364.932 47.9545 369.114 47.9545C372.023 47.9545 374.807 48.2955 377.466 48.9773C380.148 49.6591 382.523 50.7159 384.591 52.1477C386.682 53.5795 388.33 55.4205 389.534 57.6705C390.739 59.8977 391.341 62.5682 391.341 65.6818V101H377.568V93.7386H377.159C376.318 95.375 375.193 96.8182 373.784 98.0682C372.375 99.2955 370.682 100.261 368.705 100.966C366.727 101.648 364.443 101.989 361.852 101.989ZM366.011 91.9659C368.148 91.9659 370.034 91.5455 371.67 90.7045C373.307 89.8409 374.591 88.6818 375.523 87.2273C376.455 85.7727 376.92 84.125 376.92 82.2841V76.7273C376.466 77.0227 375.841 77.2955 375.045 77.5455C374.273 77.7727 373.398 77.9886 372.42 78.1932C371.443 78.375 370.466 78.5455 369.489 78.7045C368.511 78.8409 367.625 78.9659 366.83 79.0795C365.125 79.3295 363.636 79.7273 362.364 80.2727C361.091 80.8182 360.102 81.5568 359.398 82.4886C358.693 83.3977 358.341 84.5341 358.341 85.8977C358.341 87.875 359.057 89.3864 360.489 90.4318C361.943 91.4545 363.784 91.9659 366.011 91.9659ZM446.176 63.5682L432.881 64.3864C432.653 63.25 432.165 62.2273 431.415 61.3182C430.665 60.3864 429.676 59.6477 428.449 59.1023C427.244 58.5341 425.801 58.25 424.119 58.25C421.869 58.25 419.972 58.7273 418.426 59.6818C416.881 60.6136 416.108 61.8636 416.108 63.4318C416.108 64.6818 416.608 65.7386 417.608 66.6023C418.608 67.4659 420.324 68.1591 422.756 68.6818L432.233 70.5909C437.324 71.6364 441.119 73.3182 443.619 75.6364C446.119 77.9545 447.369 81 447.369 84.7727C447.369 88.2045 446.358 91.2159 444.335 93.8068C442.335 96.3977 439.585 98.4205 436.085 99.875C432.608 101.307 428.597 102.023 424.051 102.023C417.119 102.023 411.597 100.58 407.483 97.6932C403.392 94.7841 400.994 90.8295 400.29 85.8295L414.574 85.0795C415.006 87.1932 416.051 88.8068 417.71 89.9205C419.369 91.0114 421.494 91.5568 424.085 91.5568C426.631 91.5568 428.676 91.0682 430.222 90.0909C431.79 89.0909 432.585 87.8068 432.608 86.2386C432.585 84.9205 432.028 83.8409 430.938 83C429.847 82.1364 428.165 81.4773 425.892 81.0227L416.824 79.2159C411.71 78.1932 407.903 76.4205 405.403 73.8977C402.926 71.375 401.688 68.1591 401.688 64.25C401.688 60.8864 402.597 57.9886 404.415 55.5568C406.256 53.125 408.835 51.25 412.153 49.9318C415.494 48.6136 419.403 47.9545 423.881 47.9545C430.494 47.9545 435.699 49.3523 439.494 52.1477C443.313 54.9432 445.54 58.75 446.176 63.5682ZM484.366 48.6364V59.5455H452.832V48.6364H484.366ZM459.991 36.0909H474.514V84.9091C474.514 86.25 474.719 87.2955 475.128 88.0455C475.537 88.7727 476.105 89.2841 476.832 89.5795C477.582 89.875 478.446 90.0227 479.423 90.0227C480.105 90.0227 480.787 89.9659 481.469 89.8523C482.151 89.7159 482.673 89.6136 483.037 89.5455L485.321 100.352C484.594 100.58 483.571 100.841 482.253 101.136C480.935 101.455 479.332 101.648 477.446 101.716C473.946 101.852 470.878 101.386 468.241 100.318C465.628 99.25 463.594 97.5909 462.139 95.3409C460.685 93.0909 459.969 90.25 459.991 86.8182V36.0909ZM516.923 102.023C511.628 102.023 507.048 100.898 503.185 98.6477C499.344 96.375 496.378 93.2159 494.287 89.1705C492.196 85.1023 491.151 80.3864 491.151 75.0227C491.151 69.6136 492.196 64.8864 494.287 60.8409C496.378 56.7727 499.344 53.6136 503.185 51.3636C507.048 49.0909 511.628 47.9545 516.923 47.9545C522.219 47.9545 526.787 49.0909 530.628 51.3636C534.491 53.6136 537.469 56.7727 539.56 60.8409C541.651 64.8864 542.696 69.6136 542.696 75.0227C542.696 80.3864 541.651 85.1023 539.56 89.1705C537.469 93.2159 534.491 96.375 530.628 98.6477C526.787 100.898 522.219 102.023 516.923 102.023ZM516.991 90.7727C519.401 90.7727 521.412 90.0909 523.026 88.7273C524.639 87.3409 525.855 85.4545 526.673 83.0682C527.514 80.6818 527.935 77.9659 527.935 74.9205C527.935 71.875 527.514 69.1591 526.673 66.7727C525.855 64.3864 524.639 62.5 523.026 61.1136C521.412 59.7273 519.401 59.0341 516.991 59.0341C514.56 59.0341 512.514 59.7273 510.855 61.1136C509.219 62.5 507.98 64.3864 507.139 66.7727C506.321 69.1591 505.912 71.875 505.912 74.9205C505.912 77.9659 506.321 80.6818 507.139 83.0682C507.98 85.4545 509.219 87.3409 510.855 88.7273C512.514 90.0909 514.56 90.7727 516.991 90.7727Z" fill="black"/>
<path d="M121.345 72.2309C114.418 100.949 82.2966 117.836 49.5994 109.949C16.9021 102.063 -3.98919 72.3888 2.93762 43.6709C9.86442 14.9531 41.986 -1.93418 74.6832 5.95241C107.38 13.839 128.272 43.5128 121.345 72.2309Z" fill="#FF473E"/>
<path d="M87.4757 29.3425C87.1844 29.4066 86.88 29.3691 86.613 29.2362L86.4316 29.1458C86.4316 29.1458 86.3026 29.0817 86.0754 28.9511C85.8535 28.8172 85.5101 28.6326 85.1086 28.374C85.0073 28.3098 84.8979 28.2442 84.7896 28.171L84.6215 28.0616L84.4489 27.9732C84.2115 27.8559 83.9737 27.722 83.7167 27.5888C83.452 27.4583 83.2227 27.3016 82.9189 27.1659C82.6237 27.0267 82.3314 26.8724 82.0246 26.7218C81.8676 26.6513 81.7281 26.5556 81.5642 26.4924L81.0776 26.2897C80.9124 26.2238 80.7548 26.149 80.5935 26.0768L80.3518 25.9674C80.2709 25.9313 80.1815 25.9083 80.0967 25.8782C79.7516 25.7666 79.4225 25.6341 79.0856 25.5118C78.7367 25.4146 78.3888 25.3138 78.042 25.2093L77.7846 25.1318C77.6945 25.1124 77.602 25.0967 77.5133 25.0749L76.9786 24.9526C76.7991 24.9141 76.6301 24.8632 76.4455 24.8332L75.8916 24.7387L75.3453 24.6392L75.2094 24.614L75.0641 24.6005L74.7778 24.5632L74.2099 24.4859C74.0203 24.4612 73.8408 24.4251 73.6352 24.4208C73.4378 24.4006 73.2409 24.3835 73.0462 24.3595C72.8532 24.328 72.6592 24.3057 72.4698 24.2648C72.0803 24.1994 71.6708 24.1493 71.2835 24.0444C71.0859 24.0037 70.8968 23.9318 70.6984 23.8833C70.4964 23.8274 70.2935 23.7828 70.0937 23.7162C69.6914 23.6 69.2986 23.4423 68.9011 23.2948C68.494 23.1507 68.0901 23.0129 67.6917 22.8645C67.2933 22.7155 66.9031 22.5617 66.5042 22.4452C65.9703 22.279 65.4378 22.1085 64.9067 21.9337C64.7762 22.0876 64.6428 22.2391 64.5066 22.3881C64.2722 22.6257 64.1124 22.8783 63.9116 23.1025C63.7215 23.3299 63.5498 23.545 63.3742 23.7407C63.2352 23.9254 63.0922 24.107 62.9453 24.2854C62.8387 24.4192 62.7294 24.5509 62.6176 24.6804C62.5016 24.9751 62.3807 25.2677 62.2548 25.5583C62.0354 26.0606 61.8048 26.5579 61.5631 27.0499C61.5006 27.1827 61.4309 27.3132 61.3635 27.4462C61.2966 27.5836 61.2274 27.7199 61.156 27.855C60.7069 28.7188 60.229 29.5673 59.7232 30.3991C59.0247 31.5604 58.2789 32.6925 57.4876 33.7927C57.0957 34.3325 56.7029 34.8542 56.3052 35.3439C55.9324 35.8132 55.5476 36.2727 55.1509 36.7219C54.4035 37.5703 53.7116 38.2652 53.195 38.7432C52.9422 38.9842 52.7145 39.1646 52.5741 39.2913C52.5033 39.3552 52.4406 39.3991 52.4019 39.4313L52.3428 39.4754L52.1522 39.6173C51.0321 40.4519 49.4474 40.2203 48.6131 39.1002C48.4354 38.8601 48.3008 38.5909 48.2154 38.3046L48.1253 37.9992C48.0779 37.8072 47.9865 37.5199 47.9117 37.1666C47.8161 36.7466 47.7351 36.3234 47.6688 35.8978C47.5835 35.3606 47.5175 34.8205 47.4709 34.2785C47.4201 33.69 47.3833 33.0555 47.3765 32.3914C47.3605 31.7244 47.3784 31.0291 47.421 30.3132C47.4641 29.5978 47.5383 28.8634 47.6393 28.1214C47.7405 27.3788 47.8742 26.6295 48.0379 25.884C48.2016 25.1376 48.3912 24.3951 48.6213 23.669C48.7075 23.3951 48.7976 23.1236 48.8928 22.8543C48.6233 22.9005 48.3527 22.9473 48.0805 22.9933C47.1977 23.1609 46.3029 23.3525 45.4 23.5552C44.4959 23.763 43.5884 23.9984 42.6785 24.2333C41.7744 24.4886 40.8665 24.7368 39.9723 24.9989C39.0854 25.2733 38.1949 25.5263 37.3475 25.8075C36.4885 26.0715 35.6703 26.3541 34.8772 26.6075L32.6713 27.3595C32.3524 27.4788 32.0308 27.5908 31.7067 27.6954C31.3989 27.7954 31.1485 27.8908 30.884 27.9698C30.6299 28.0531 30.3965 28.1211 30.1727 28.217C29.9574 28.3054 29.7668 28.3742 29.6113 28.4297C29.3018 28.5413 29.1252 28.5915 29.1252 28.5915C28.8771 28.6621 28.6157 28.6718 28.363 28.62C28.1103 28.5681 27.8738 28.4562 27.6736 28.2935C27.4733 28.1309 27.3152 27.9225 27.2126 27.6858C27.11 27.4491 27.0659 27.1912 27.0841 26.9339C27.0841 26.9339 27.0971 26.7508 27.1427 26.4251C27.165 26.2619 27.1935 26.0611 27.2357 25.8322C27.2597 25.7155 27.2679 25.5968 27.312 25.4556L27.4425 25.0175C27.5324 24.7077 27.6551 24.3554 27.7888 24.0003C27.9329 23.6177 28.089 23.2398 28.257 22.8671C28.4577 22.45 28.6701 22.0386 28.8939 21.6334C29.1526 21.1906 29.4249 20.756 29.7104 20.33C30.3243 19.4564 31.0513 18.5397 31.9215 17.6715C32.7801 16.7855 33.7852 15.957 34.8881 15.1743C36.0368 14.3797 37.2556 13.6917 38.5294 13.1188C39.8437 12.5448 41.2361 12.0689 42.6742 11.7296C44.1183 11.4104 45.5998 11.2133 47.0757 11.1721C48.1089 11.1528 49.1343 11.2046 50.1352 11.3286C49.9558 10.9957 49.755 10.6748 49.5339 10.3681C49.4016 10.1741 49.2374 9.9733 49.0822 9.75872C48.9018 9.55577 48.732 9.34652 48.5356 9.12588C48.1578 8.69431 47.7245 8.25231 47.2999 7.81056L46.0084 6.51147C45.6114 6.11233 45.2177 5.70988 44.8275 5.30416C44.4705 4.92466 44.1602 4.58923 43.9008 4.28431C43.618 3.99224 43.4063 3.72147 43.2576 3.55484C43.1832 3.47153 43.1292 3.39524 43.0917 3.3485L43.0353 3.27584L42.9149 3.1206C42.7701 2.93392 42.6736 2.71447 42.6338 2.48163C42.5939 2.24879 42.6121 2.00973 42.6865 1.78555C42.761 1.56137 42.8895 1.35898 43.0608 1.19626C43.232 1.03353 43.4407 0.915475 43.6683 0.852516C43.6683 0.852516 43.779 0.822001 43.9837 0.775016C44.1871 0.732634 44.4901 0.653438 44.8667 0.586837C45.2588 0.528712 45.7512 0.444188 46.3002 0.399626L47.1813 0.320673C47.4942 0.299118 47.819 0.300329 48.1643 0.290399C48.5087 0.283618 48.872 0.293548 49.2508 0.297181C49.6298 0.304446 50.0209 0.347556 50.4295 0.376134C51.2459 0.469618 52.1214 0.594345 53.0488 0.84404C53.9739 1.08114 54.9572 1.41391 55.9552 1.91475C56.9579 2.40131 57.9715 3.054 58.9358 3.8663C59.1746 4.07313 59.4134 4.28407 59.6503 4.49986C59.8787 4.72534 60.1061 4.95541 60.3316 5.18961C60.5503 5.42841 60.767 5.67253 60.9816 5.92005C61.1974 6.16732 61.3878 6.42743 61.5885 6.68633C62.0516 7.31553 62.4674 7.96823 62.8186 8.62722C63.1354 8.31286 63.4633 8.00649 63.814 7.72725C64.3935 7.2235 65.0273 6.80137 65.6684 6.37996C65.9958 6.18611 66.3259 5.99702 66.6587 5.81276C66.99 5.62046 67.3354 5.47854 67.6762 5.31385C69.0479 4.69627 70.4686 4.24532 71.8682 4.00216C73.267 3.74956 74.6466 3.65027 75.9536 3.71784C77.2619 3.77524 78.5024 3.95881 79.6417 4.25695C80.7826 4.53885 81.8226 4.93774 82.7448 5.36907C83.6663 5.81566 84.4709 6.29011 85.1442 6.79192C85.4796 7.04283 85.7908 7.26588 86.0616 7.51945C86.335 7.76237 86.5762 7.97113 86.8063 8.21017C87.0061 8.40611 87.1983 8.6097 87.3825 8.82049C87.5128 8.99583 87.6198 9.15398 87.7063 9.28306C87.7942 9.40876 87.8567 9.51653 87.9005 9.58483L87.9664 9.69018C88.1015 9.90637 88.1823 10.1521 88.2018 10.4063C88.2213 10.6605 88.1789 10.9156 88.0783 11.1499C87.9778 11.3842 87.8219 11.5906 87.6242 11.7515C87.4265 11.9125 87.1927 12.0231 86.9429 12.074L86.8211 12.099C86.7414 12.1142 86.6201 12.1433 86.4685 12.1663C86.3154 12.1927 86.127 12.2239 85.9097 12.2506C85.7133 12.3031 85.498 12.3557 85.2672 12.4109C85.0444 12.471 84.7683 12.5276 84.4828 12.5933C84.3387 12.6284 84.1936 12.6577 84.0429 12.6889L83.575 12.7996C82.9403 12.9449 82.2433 13.1193 81.5186 13.2968C80.7909 13.4872 80.0328 13.6754 79.2624 13.8984C78.8778 14.0018 78.491 14.1133 78.1043 14.229L78.2544 14.307C78.8098 14.5761 79.3474 14.9357 79.8742 15.2745L80.6526 15.7841C80.9049 15.964 81.1474 16.1694 81.3891 16.3593L82.0994 16.935C82.2154 17.0311 82.3319 17.1234 82.4443 17.2212L82.769 17.5327C83.1936 17.9517 83.6191 18.3394 83.9928 18.7611C84.3402 19.1826 84.6837 19.6074 85.0231 20.0355C85.1032 20.1396 85.1885 20.2372 85.2611 20.344L85.475 20.6627C85.615 20.8739 85.7542 21.0781 85.8816 21.2861L86.2575 21.8913C86.3822 22.0863 86.474 22.2958 86.5786 22.4895C86.7787 22.8838 86.9722 23.2527 87.141 23.6106C87.228 23.785 87.3028 23.9696 87.373 24.15L87.5774 24.668C87.7058 25.002 87.8291 25.3067 87.9271 25.5949L88.0008 25.8044L88.0509 25.9955L88.1417 26.3505C88.2604 26.7978 88.336 27.1611 88.3953 27.4035L88.4779 27.7809C88.5517 28.1208 88.4876 28.4762 88.2998 28.7689C88.1119 29.0617 87.8155 29.268 87.4757 29.3425Z" fill="#2BA52E"/>
<path d="M105.645 67.2946C102.637 67.2946 99.8623 65.33 98.9686 62.2976C96.6886 54.5614 92.6078 48.2088 87.4782 44.4103C84.3874 42.1216 83.7372 37.7606 86.0261 34.6698C88.3148 31.5787 92.6758 30.9287 95.7666 33.2174C103.315 38.8073 109.197 47.7365 112.328 58.3603C113.416 62.0493 111.306 65.9214 107.617 67.0086C106.977 67.1979 106.313 67.2943 105.645 67.2946Z" fill="#FF8888"/>
</svg>
